<region> lovel=1 hivel=6 amp_velcurve_6=1 sample=../samples/toms/tm8rock/hnd/snare_on/ord/tm8wrock_hndr_ord_001.wav
<region> lovel=7 hivel=12 amp_velcurve_12=1 sample=../samples/toms/tm8rock/hnd/snare_on/ord/tm8wrock_hndr_ord_002.wav
<region> lovel=13 hivel=18 amp_velcurve_18=1 sample=../samples/toms/tm8rock/hnd/snare_on/ord/tm8wrock_hndr_ord_003.wav
<region> lovel=19 hivel=24 amp_velcurve_24=1 sample=../samples/toms/tm8rock/hnd/snare_on/ord/tm8wrock_hndr_ord_004.wav
<region> lovel=25 hivel=30 amp_velcurve_30=1 sample=../samples/toms/tm8rock/hnd/snare_on/ord/tm8wrock_hndr_ord_005.wav
<region> lovel=31 hivel=36 amp_velcurve_36=1 sample=../samples/toms/tm8rock/hnd/snare_on/ord/tm8wrock_hndr_ord_006.wav
<region> lovel=37 hivel=42 amp_velcurve_42=1 sample=../samples/toms/tm8rock/hnd/snare_on/ord/tm8wrock_hndr_ord_007.wav
<region> lovel=43 hivel=48 amp_velcurve_48=1 sample=../samples/toms/tm8rock/hnd/snare_on/ord/tm8wrock_hndr_ord_008.wav
<region> lovel=49 hivel=54 amp_velcurve_54=1 sample=../samples/toms/tm8rock/hnd/snare_on/ord/tm8wrock_hndr_ord_009.wav
<region> lovel=55 hivel=60 amp_velcurve_60=1 sample=../samples/toms/tm8rock/hnd/snare_on/ord/tm8wrock_hndr_ord_010.wav
<region> lovel=61 hivel=66 amp_velcurve_66=1 sample=../samples/toms/tm8rock/hnd/snare_on/ord/tm8wrock_hndr_ord_011.wav
<region> lovel=67 hivel=72 amp_velcurve_72=1 sample=../samples/toms/tm8rock/hnd/snare_on/ord/tm8wrock_hndr_ord_012.wav
<region> lovel=73 hivel=78 amp_velcurve_78=1 sample=../samples/toms/tm8rock/hnd/snare_on/ord/tm8wrock_hndr_ord_013.wav
<region> lovel=79 hivel=85 amp_velcurve_85=1 sample=../samples/toms/tm8rock/hnd/snare_on/ord/tm8wrock_hndr_ord_014.wav
<region> lovel=86 hivel=92 amp_velcurve_92=1 sample=../samples/toms/tm8rock/hnd/snare_on/ord/tm8wrock_hndr_ord_015.wav
<region> lovel=93 hivel=99 amp_velcurve_99=1 sample=../samples/toms/tm8rock/hnd/snare_on/ord/tm8wrock_hndr_ord_016.wav
<region> lovel=100 hivel=106 amp_velcurve_106=1 sample=../samples/toms/tm8rock/hnd/snare_on/ord/tm8wrock_hndr_ord_017.wav
<region> lovel=107 hivel=113 amp_velcurve_113=1 sample=../samples/toms/tm8rock/hnd/snare_on/ord/tm8wrock_hndr_ord_018.wav
<region> lovel=114 hivel=120 amp_velcurve_120=1 sample=../samples/toms/tm8rock/hnd/snare_on/ord/tm8wrock_hndr_ord_019.wav
<region> lovel=121 hivel=127 amp_velcurve_127=1 sample=../samples/toms/tm8rock/hnd/snare_on/ord/tm8wrock_hndr_ord_020.wav
